<svg width="48" height="48" viewBox="0 0 48 48" fill="none" xmlns="http://www.w3.org/2000/svg">
<path fill-rule="evenodd" clip-rule="evenodd" d="M24 48C37.2548 48 48 37.2548 48 24C48 10.7452 37.2548 0 24 0C10.7452 0 0 10.7452 0 24C0 37.2548 10.7452 48 24 48ZM20.0928 20.616C20.0928 21.2481 19.9102 21.7078 19.5319 21.9863C19.1537 22.2692 18.6711 22.4106 18.1016 22.4062H14.7932V18.8833H17.8495C18.1277 18.8789 18.4103 18.9054 18.6885 18.9585C18.944 18.9974 19.1893 19.0875 19.4102 19.2237C19.6232 19.3519 19.7971 19.5331 19.9145 19.7497C20.0449 20.0193 20.1058 20.3155 20.0928 20.616ZM18.3407 24.6737C19.0494 24.6737 19.6189 24.8373 20.0449 25.1688C20.4753 25.5047 20.6927 26.0572 20.6927 26.8396C20.6927 27.233 20.6275 27.5601 20.4971 27.8165C20.3623 28.0728 20.1841 28.2717 19.9623 28.4176C19.7268 28.573 19.4641 28.6811 19.1885 28.7359C18.8972 28.7977 18.5972 28.8287 18.2712 28.8287H14.7845V24.6737H18.3407ZM33.296 16.7086H27.2791V18.1982H33.296V16.7086ZM22.3447 30.3625C22.8353 30.0045 23.2371 29.5354 23.5186 28.9922C23.8098 28.4397 23.9533 27.7811 23.9533 27.012C23.9533 26.0661 23.7316 25.2616 23.2795 24.5898C22.836 23.9267 22.1622 23.4538 21.2448 23.1886C21.9187 22.8659 22.4143 22.4548 22.7578 21.9465C23.0969 21.4382 23.2664 20.8105 23.2664 20.0503C23.2664 19.3475 23.149 18.7552 22.923 18.2822C22.6925 17.8048 22.3665 17.4203 21.9535 17.133C21.5361 16.8457 21.0405 16.6335 20.4579 16.5097C19.871 16.386 19.2276 16.3197 18.519 16.3197H11.5195V31.3968H18.719C19.3735 31.4018 20.0257 31.3171 20.6579 31.1448C21.2622 30.9901 21.8317 30.7249 22.3447 30.3625ZM27.8834 26.6584H35.6393C35.6915 25.8097 35.6263 25.0053 35.4393 24.2406C35.2437 23.4626 34.935 22.7731 34.4959 22.1675C34.0533 21.5599 33.4791 21.0638 32.8178 20.7177C32.1309 20.3553 31.3397 20.1784 30.4267 20.1784C29.6572 20.1696 28.8964 20.3199 28.1878 20.6205C26.8618 21.1907 25.8227 22.2913 25.3228 23.6659C25.0619 24.3732 24.9271 25.1334 24.9271 25.9512C24.9185 26.7424 25.0489 27.5291 25.3141 28.2762C25.5541 28.9514 25.9252 29.5707 26.4053 30.0972C26.8922 30.61 27.4835 31.0078 28.1399 31.2686C28.8225 31.5382 29.5833 31.6797 30.4311 31.6797C31.644 31.6797 32.6874 31.3968 33.5395 30.831C34.4003 30.2652 35.035 29.3281 35.4524 28.0154H32.8526C32.757 28.3513 32.4961 28.674 32.0657 28.979C31.631 29.2839 31.1223 29.4387 30.5224 29.4387C29.692 29.4387 29.0573 29.2176 28.6138 28.78C28.1747 28.338 27.8834 27.5159 27.8834 26.6584ZM29.1659 22.6803C29.4703 22.5167 29.8659 22.4327 30.3354 22.4327C31.0614 22.4327 31.6483 22.6449 32.0135 23.0383C32.3613 23.4361 32.6222 24.0019 32.6917 24.7666H27.8878C27.9052 24.5235 27.953 24.2848 28.0226 24.0505C28.1014 23.7693 28.236 23.5076 28.4182 23.2814C28.6095 23.0471 28.8616 22.8438 29.1659 22.6803Z" fill="#212529"/>
</svg>
