<svg width="25" height="16" viewBox="0 0 25 16" fill="none" xmlns="http://www.w3.org/2000/svg">
<path fill-rule="evenodd" clip-rule="evenodd" d="M8.48634 5.98645C8.86242 5.70798 9.04397 5.24829 9.04397 4.61621C9.05694 4.31564 8.99642 4.01948 8.86674 3.74986C8.75002 3.53327 8.57712 3.35205 8.3653 3.22386C8.14568 3.08768 7.90175 2.99752 7.64773 2.95865C7.37107 2.90561 7.09009 2.87909 6.81344 2.88351H3.77455V6.40636H7.06416C7.63044 6.41078 8.11026 6.26934 8.48634 5.98645ZM8.99642 9.16896C8.57279 8.83745 8.00651 8.67389 7.30191 8.67389H3.76591V12.8288H7.23274C7.55695 12.8288 7.85522 12.7979 8.14484 12.736C8.41887 12.6812 8.68007 12.5732 8.91429 12.4178C9.13475 12.2719 9.31198 12.073 9.44599 11.8166C9.57567 11.5603 9.64051 11.2332 9.64051 10.8398C9.64051 10.0574 9.42437 9.50489 8.99642 9.16896ZM16.1895 0.708796H22.1721V2.19839H16.1895V0.708796ZM12.4503 12.9924C12.1705 13.5355 11.7709 14.0046 11.2831 14.3626C10.7731 14.7251 10.2068 14.9903 9.60593 15.145C8.97729 15.3172 8.32879 15.402 7.67799 15.3969H0.519531V0.319824H7.47914C8.18375 0.319824 8.82351 0.386129 9.40708 0.509893C9.98633 0.633657 10.4791 0.845819 10.8941 1.13313C11.3048 1.42044 11.629 1.805 11.8581 2.28237C12.0829 2.75533 12.1996 3.34762 12.1996 4.05043C12.1996 4.81069 12.031 5.43835 11.6938 5.94667C11.3523 6.45498 10.8595 6.86606 10.1895 7.18873C11.1016 7.45394 11.7716 7.9269 12.2125 8.58992C12.6621 9.26178 12.8826 10.0662 12.8826 11.0122C12.8826 11.7813 12.7399 12.4399 12.4503 12.9924ZM24.5021 10.6585H16.7903C16.7903 11.516 17.0799 12.3382 17.5165 12.7802C17.9575 13.2178 18.5886 13.4388 19.4142 13.4388C20.0108 13.4388 20.5165 13.2841 20.9488 12.9791C21.3767 12.6741 21.6361 12.3515 21.7312 12.0155H24.3162C23.9012 13.3283 23.2701 14.2654 22.4142 14.8312C21.5669 15.3969 20.5295 15.6798 19.3234 15.6798C18.4805 15.6798 17.724 15.5384 17.0454 15.2688C16.3926 15.008 15.8047 14.6101 15.3206 14.0974C14.8432 13.5709 14.4742 12.9516 14.2356 12.2763C13.9719 11.5293 13.8422 10.7425 13.8509 9.95132C13.8509 9.13359 13.9849 8.37333 14.2442 7.66611C14.7413 6.29144 15.7745 5.19083 17.0929 4.62063C17.7975 4.32006 18.554 4.16977 19.3191 4.17861C20.2269 4.17861 21.0136 4.35542 21.6966 4.71787C22.3541 5.06398 22.925 5.56002 23.3652 6.16768C23.8018 6.77324 24.1087 7.46278 24.3032 8.24073C24.4891 9.00541 24.554 9.80987 24.5021 10.6585ZM19.2283 6.43289C18.7615 6.43289 18.3681 6.51687 18.0655 6.68041C17.7629 6.84396 17.5122 7.04728 17.322 7.28155C17.1409 7.50774 17.007 7.7695 16.9286 8.05066C16.8595 8.28493 16.8119 8.52361 16.7946 8.76672H21.5713C21.5021 8.00204 21.2427 7.43626 20.8969 7.03845C20.5338 6.64505 19.9502 6.43289 19.2283 6.43289Z" fill="white"/>
</svg>
