<svg width="24" height="24" viewBox="0 0 24 24" fill="none" xmlns="http://www.w3.org/2000/svg">
<path fill-rule="evenodd" clip-rule="evenodd" d="M12 0C5.37598 0 0 5.37598 0 12C0 18.624 5.37598 24 12 24C18.5996 24 24 18.624 24 12C24 5.37598 18.5996 0 12 0ZM18.792 4.34375C16.9922 2.75977 14.5918 1.77588 12 1.77588C11.1602 1.77588 10.3682 1.87207 9.59961 2.04004L9.76367 2.27148C10.3154 3.04395 11.9395 5.31982 13.416 8.04004C17.0645 6.67188 18.5996 4.60791 18.792 4.34375ZM22.248 11.9038C22.2002 9.47998 21.3604 7.27197 19.9199 5.52002C19.7041 5.80811 17.9756 8.04004 14.2324 9.55176C14.4717 10.0312 14.6875 10.5347 14.9043 11.04C14.9404 11.124 14.9766 11.2144 15.0127 11.3047L15.0732 11.4565L15.1201 11.5679C18.5283 11.1602 21.9121 11.832 22.248 11.9038ZM7.63184 2.73584C7.72559 2.86426 8.0166 3.26904 8.42969 3.87305C8.61719 4.14697 8.83008 4.46191 9.06055 4.81055L9.42676 5.37109C9.57422 5.59863 9.72656 5.83691 9.88184 6.08447C10.1279 6.4751 10.3828 6.88867 10.6416 7.31885C10.9014 7.75195 11.1641 8.20264 11.4238 8.66406C6.70117 9.91553 2.53613 9.9126 1.96875 9.91211H1.94434C2.63965 6.72021 4.77637 4.08008 7.63184 2.73584ZM1.75195 11.7119V12.0239C1.75195 14.6401 2.73633 17.04 4.3916 18.8638L4.4082 18.8374C4.74023 18.3027 7.54102 13.7915 12.7197 12.1201C12.7842 12.0986 12.8477 12.082 12.9092 12.0664C12.9863 12.0459 13.0615 12.0269 13.1279 12C12.8643 11.3999 12.5762 10.8242 12.2881 10.248C7.17578 11.7842 2.18359 11.7358 1.75195 11.7119ZM12 22.248C9.62402 22.248 7.44043 21.4321 5.71191 20.0879C5.9043 19.7041 7.96777 15.6958 13.752 13.6802C13.7764 13.6562 13.7998 13.6562 13.8242 13.6562C15.2637 17.3999 15.8643 20.52 16.0078 21.4321C15.6396 21.5908 15.2588 21.7275 14.8672 21.8413C14.4658 21.9585 14.0537 22.0513 13.6338 22.1187C13.1006 22.2041 12.5537 22.248 12 22.248ZM15.7197 13.2002C17.0645 16.8721 17.6162 19.8721 17.7119 20.4961C20.0156 18.96 21.6484 16.4878 22.1035 13.6318L22.04 13.6143C21.4873 13.4624 18.7891 12.7192 15.7197 13.2002Z" fill="white"/>
</svg>
