<svg width="48" height="48" viewBox="0 0 48 48" fill="none" xmlns="http://www.w3.org/2000/svg">
<path d="M34.248 23.904C34.2 21.48 33.36 19.272 31.92 17.52C31.704 17.808 29.976 20.04 26.232 21.552C26.4717 22.0314 26.6874 22.5347 26.9032 23.038L26.904 23.04C26.9401 23.1242 26.9762 23.2144 27.0122 23.3047C27.0482 23.3944 27.0841 23.4842 27.12 23.568C30.528 23.16 33.912 23.832 34.248 23.904Z" fill="#212529"/>
<path d="M30.792 16.344C28.992 14.76 26.592 13.776 24 13.776C23.16 13.776 22.368 13.872 21.6 14.04C21.632 14.0866 21.6877 14.1646 21.7639 14.2714C22.3155 15.0441 23.9399 17.3197 25.416 20.04C29.064 18.672 30.6 16.608 30.792 16.344Z" fill="#212529"/>
<path d="M23.424 20.664C21.72 17.64 19.896 15.096 19.632 14.736C16.776 16.08 14.64 18.72 13.944 21.912H13.9688C14.5359 21.9124 18.7011 21.9156 23.424 20.664Z" fill="#212529"/>
<path d="M13.752 23.712V24.024C13.752 26.64 14.736 29.04 16.392 30.864L16.4086 30.8373C16.7405 30.3027 19.5411 25.7914 24.72 24.12C24.7837 24.0988 24.8475 24.0822 24.9092 24.0662C24.9868 24.0461 25.0611 24.0268 25.128 24C24.864 23.4 24.576 22.824 24.288 22.248C19.176 23.784 14.184 23.736 13.752 23.712Z" fill="#212529"/>
<path d="M17.712 32.088C19.44 33.432 21.624 34.248 24 34.248C25.416 34.248 26.784 33.96 28.008 33.432C27.864 32.52 27.264 29.4 25.824 25.656C25.8 25.656 25.776 25.656 25.752 25.68C19.968 27.696 17.904 31.704 17.712 32.088Z" fill="#212529"/>
<path d="M27.72 25.2C29.064 28.872 29.616 31.872 29.712 32.496C32.016 30.96 33.648 28.488 34.104 25.632C34.0876 25.6276 34.066 25.6217 34.0396 25.6144C33.4869 25.4622 30.7893 24.719 27.72 25.2Z" fill="#212529"/>
<path fill-rule="evenodd" clip-rule="evenodd" d="M24 48C10.7452 48 0 37.2548 0 24C0 10.7452 10.7452 0 24 0C37.2548 0 48 10.7452 48 24C48 37.2548 37.2548 48 24 48ZM12 24C12 17.376 17.376 12 24 12C30.6 12 36 17.376 36 24C36 30.624 30.6 36 24 36C17.376 36 12 30.624 12 24Z" fill="#212529"/>
</svg>
