<svg width="25" height="25" viewBox="0 0 25 25" fill="none" xmlns="http://www.w3.org/2000/svg">
<path fill-rule="evenodd" clip-rule="evenodd" d="M20.3567 1.12811C19.6338 0.838957 18.7664 0.694381 17.4652 0.549805H7.63403C6.33285 0.549805 5.46539 0.838957 4.74251 1.12811C4.01963 1.41726 3.29675 1.85099 2.57387 2.57387C1.85099 3.29675 1.56184 3.87505 1.12811 4.74251C0.838958 5.46539 0.694381 6.33285 0.549805 7.63403V17.4652C0.549805 18.7664 0.838958 19.6338 1.12811 20.3567C1.41726 21.0796 1.85099 21.8025 2.57387 22.5254C3.29675 23.2482 3.87505 23.5374 4.74251 23.9711C5.46539 24.2603 6.33285 24.4048 7.63403 24.5494H17.4652C18.7664 24.5494 19.6338 24.2603 20.3567 23.9711C21.0796 23.682 21.8025 23.2482 22.5254 22.5254C23.2482 21.8025 23.5374 21.2242 23.9711 20.3567L23.9711 20.3567C24.2603 19.6338 24.4048 18.7664 24.5494 17.4652V7.63403C24.5494 6.33285 24.2603 5.46539 23.9711 4.74251C23.682 4.01963 23.2482 3.29675 22.5254 2.57387C21.8025 1.85099 21.2242 1.56184 20.3567 1.12811ZM19.4206 3.0763C19.0074 2.92505 18.4429 2.71845 17.4652 2.71845H7.63403C6.47742 2.86302 5.89912 3.0076 5.46539 3.15217C4.88709 3.29675 4.45336 3.5859 4.01963 4.01963C3.67643 4.36283 3.51427 4.70604 3.31827 5.12087L3.31814 5.12116L3.31811 5.12122L3.3181 5.12123C3.2665 5.23045 3.2124 5.34493 3.15217 5.46539C3.12981 5.53249 3.10398 5.60305 3.0763 5.67867C2.92505 6.09189 2.71845 6.65635 2.71845 7.63403V17.4652C2.86302 18.6218 3.0076 19.2001 3.15217 19.6338C3.29675 20.2121 3.5859 20.6459 4.01963 21.0796C4.36284 21.4228 4.70604 21.585 5.12088 21.781L5.12118 21.7811C5.2305 21.8328 5.3448 21.8868 5.46539 21.9471C5.53249 21.9694 5.60304 21.9952 5.67867 22.0229C6.09188 22.1742 6.65635 22.3808 7.63403 22.3808H17.4652C18.6218 22.2362 19.2001 22.0916 19.6338 21.9471C20.2121 21.8025 20.6459 21.5133 21.0796 21.0796C21.4228 20.7364 21.585 20.3932 21.781 19.9784L21.781 19.9783L21.7813 19.9777C21.8329 19.8685 21.8868 19.7543 21.9471 19.6338C21.9694 19.5668 21.9952 19.4963 22.0229 19.4208L22.0229 19.4206C22.1742 19.0073 22.3808 18.4429 22.3808 17.4652V7.63403C22.2362 6.47742 22.0916 5.89912 21.9471 5.46539C21.8025 4.88709 21.5133 4.45336 21.0796 4.01963C20.7364 3.67643 20.3932 3.51427 19.9784 3.31827C19.8691 3.26665 19.7543 3.21242 19.6338 3.15217C19.5668 3.12982 19.4963 3.10401 19.4207 3.07634L19.4206 3.0763ZM12.5496 6.33285C9.07979 6.33285 6.33285 9.07979 6.33285 12.5496C6.33285 16.0194 9.07979 18.7664 12.5496 18.7664C16.0194 18.7664 18.7664 16.0194 18.7664 12.5496C18.7664 9.07979 16.0194 6.33285 12.5496 6.33285ZM20.3567 6.18827C20.3567 6.98674 19.7094 7.63403 18.911 7.63403C18.1125 7.63403 17.4652 6.98674 17.4652 6.18827C17.4652 5.3898 18.1125 4.74251 18.911 4.74251C19.7094 4.74251 20.3567 5.3898 20.3567 6.18827ZM12.5496 16.5977C10.381 16.5977 8.50149 14.8628 8.50149 12.5496C8.50149 10.381 10.2364 8.50149 12.5496 8.50149C14.7183 8.50149 16.5977 10.2364 16.5977 12.5496C16.5977 14.7183 14.7183 16.5977 12.5496 16.5977Z" fill="white"/>
</svg>
