<svg width="60" height="60" viewBox="0 0 60 60" fill="none" xmlns="http://www.w3.org/2000/svg">
<path d="M60 30C60 46.5685 46.5685 60 30 60C13.4315 60 0 46.5685 0 30C0 13.4315 13.4315 0 30 0C46.5685 0 60 13.4315 60 30Z" fill="#0272F1"/>
<path d="M27.5768 25.6289C27.4398 25.7111 27.3097 25.807 27.1932 25.9303L23.4117 29.8968V27.4237V18.4151L21.7059 15.4625C20.6372 16.0791 20.0069 17.182 20 18.4151V38.4121L23.4048 34.8361L29.3101 28.6431L27.5768 25.6289ZM31.742 32.8494C31.5982 32.9316 31.468 33.0344 31.3515 33.1577L23.4117 41.584V37.3092L20 40.8852V41.5908C19.9932 42.961 20.8084 44.1941 22.0689 44.7284C23.0691 45.1532 24.1926 45.071 25.1038 44.5435C25.3435 44.4064 25.5696 44.2352 25.7683 44.0365C25.7888 44.016 25.8094 44.0023 25.8231 43.9748L33.4684 35.8569L31.742 32.8494Z" fill="white"/>
<path d="M36.0112 21.7513L31.2157 22.9159L23.4128 18.415L21.707 15.4624C22.7689 14.8459 24.0431 14.8459 25.1118 15.4624L36.0112 21.7513Z" fill="#CCE3FC"/>
<path d="M46.8675 30.4174C46.6963 31.7807 45.7372 32.8973 44.4219 33.281C44.3945 33.2878 44.3739 33.2947 44.3397 33.3015L33.4814 35.8637L31.7414 32.8494C31.8852 32.7672 32.0428 32.6987 32.2072 32.6644L43.4765 30.0064L37.626 26.629L29.3162 28.6431L27.5762 25.6288C27.72 25.5466 27.8707 25.4849 28.0283 25.4507L38.1398 22.9982L45.1891 27.0537C46.3743 27.7388 47.032 29.0541 46.8675 30.4174Z" fill="#CCE3FC"/>
<path d="M44.0941 35.11L35.339 39.0902L34.3662 37.4049L44.0941 35.11Z" fill="#CCE3FC"/>
<path d="M35.3381 39.0903L27.5215 44.6804L34.3653 37.405L35.3381 39.0903Z" fill="white"/>
</svg>
