<svg width="24" height="24" viewBox="0 0 24 24" fill="none" xmlns="http://www.w3.org/2000/svg">
<path d="M22.4068 9.01234C22.0478 8.6553 21.4674 8.65689 21.1104 9.01582L10.0909 20.0949C8.66124 21.5245 6.33929 21.5245 4.90698 20.093C3.47575 18.661 3.47575 16.339 4.90716 14.9076L16.2528 3.50238C17.1454 2.60986 18.5965 2.60986 19.4917 3.50431C20.3865 4.3992 20.3865 5.85016 19.4914 6.7453L10.0926 16.1441L10.0909 16.1459C9.73282 16.502 9.15415 16.5016 8.79681 16.1442C8.43887 15.7863 8.43887 15.2062 8.79681 14.8482L13.3335 10.3105C13.6915 9.95251 13.6914 9.37208 13.3334 9.01414C12.9754 8.6562 12.395 8.65625 12.037 9.01427L7.50033 13.5519C6.42648 14.6257 6.42648 16.3667 7.50042 17.4406C8.57431 18.5145 10.3153 18.5145 11.3892 17.4406L11.3927 17.4368L20.7878 8.04161C22.3989 6.4305 22.3989 3.81872 20.7878 2.20762C19.1765 0.59746 16.5649 0.59746 14.9547 2.20762L3.60904 13.613C1.4634 15.7586 1.46339 19.2411 3.61059 21.3894C5.7592 23.5369 9.24172 23.5369 11.389 21.3895L22.4103 10.3087C22.7673 9.94976 22.7657 9.36937 22.4068 9.01234Z" fill="#757575"/>
</svg>
